<svg xmlns="http://www.w3.org/2000/svg" xmlns:xlink="http://www.w3.org/1999/xlink" width="57" height="57" viewBox="0 0 57 57"><defs><path id="h7ara" d="M722.06 1126.01a1 1 0 0 1 1 1 1 1 0 0 1-1 1 1 1 0 0 1-1-1 1 1 0 0 1 1-1zm-36.03 0a1 1 0 0 1 1 1 1 1 0 0 1-1 1 1 1 0 0 1-1-1 1 1 0 0 1 1-1zm3 2.99a1 1 0 0 1 1 .99 1 1 0 0 1-1 1 1 1 0 0 1-1-1 1 1 0 0 1 1-1zm6 0a1 1 0 0 1 1 .99 1 1 0 0 1-1 1 1 1 0 0 1-1-1 1 1 0 0 1 1-1zm-3 2.98a1 1 0 0 1 1 1 1 1 0 0 1-1 .99 1 1 0 0 1-1-1 1 1 0 0 1 1-1zm6 0a1 1 0 0 1 1.01 1 1 1 0 0 1-1 .99 1 1 0 0 1-1-1 1 1 0 0 1 1-1zm3.01 2.98a1 1 0 0 1 1 1 1 1 0 0 1-1 1 1 1 0 0 1-1-1 1 1 0 0 1 1-1zm6 0a1 1 0 0 1 1 1 1 1 0 0 1-1 1 1 1 0 0 1-1-1 1 1 0 0 1 1-1zm3-2.98a1 1 0 0 1 1 1 1 1 0 0 1-1 .99 1 1 0 0 1-1-1 1 1 0 0 1 1-1zm-6 5.97a1 1 0 0 1 1 1 1 1 0 0 1-1 .99 1 1 0 0 1-1-1 1 1 0 0 1 1-1zm9.01-8.95a1 1 0 0 1 1 .99 1 1 0 0 1-1 1 1 1 0 0 1-1-1 1 1 0 0 1 1-1zm6 0a1 1 0 0 1 1 .99 1 1 0 0 1-1 1 1 1 0 0 1-1-1 1 1 0 0 1 1-1zm-3 2.98a1 1 0 0 1 1 1 1 1 0 0 1-1 .99 1 1 0 0 1-1-1 1 1 0 0 1 1-1zm6.36 1.92l-.07.04 9.66 5.45-27.5 15.61-27.5-15.6 9.66-5.46-9.66-5.49 9.66-5.45-9.66-5.49 27.5-15.52 27.5 15.52-9.67 5.49 9.67 5.45-9.4 5.34c-.07.04-.12.08-.2.1zm-41.37-16.38l23.46 13.31 15.81-8.97 7.64-4.34-23.45-13.24zm0 10.94l1.36.77a.98.98 0 0 1 1.63.76c0 .05-.03.1-.03.14l10.06 5.72c.06-.5.46-.89.98-.89a1 1 0 0 1 1 1c0 .32-.17.6-.4.78l2.2 1.25c.06-.02.13-.04.2-.04.45 0 .8.29.94.69l5.52 3.13 4.6-2.6c-.02-.08-.05-.15-.05-.23a1 1 0 0 1 1.7-.71l2.26-1.29a1 1 0 0 1-.96-.98 1 1 0 0 1 1-1 1 1 0 0 1 1 1c0 .17-.05.32-.13.47l6.4-3.63 3.94-2.25a.97.97 0 0 1-.2-.56 1 1 0 0 1 1.91-.4l1.98-1.13-7.64-4.32-.32.19c-.13.4-.49.69-.93.69-.08 0-.14-.03-.2-.04l-2.21 1.25c.24.18.4.45.4.78a1 1 0 0 1-1 .99.99.99 0 0 1-.97-.88l-10.06 5.71.02.14a1 1 0 0 1-1 1 1 1 0 0 1-1-1c0-.21.08-.4.2-.56l-10.34-5.87c.08.14.13.3.13.47a1 1 0 0 1-1 1 1 1 0 0 1-1-1 1 1 0 0 1 .96-.99l-2.27-1.28a1 1 0 0 1-1.58-.29zm39.27 6.63l-15.81 8.97-15.82-8.97-7.64 4.3 23.46 13.32 23.45-13.31z"/></defs><g><g transform="translate(-676 -1100)"><use xlink:href="#h7ara"/></g></g></svg>