<svg xmlns="http://www.w3.org/2000/svg" xmlns:xlink="http://www.w3.org/1999/xlink" width="53" height="62" viewBox="0 0 53 62"><defs><path id="ew2wa" d="M699.78 1220.82v3.13c0 .51-.4.93-.92.93a.92.92 0 0 1-.92-.93v-3.13c0-.52.42-.93.92-.93.51 0 .92.41.92.93zm5.13 4.04v5.2c0 .5-.41.92-.92.92a.92.92 0 0 1-.92-.93v-5.2c0-.5.41-.92.92-.92.5 0 .92.42.92.93zm20.68 11.6c-.3.35-.74.54-1.2.54H678.6c-.47 0-.92-.2-1.22-.57-.3-.37-.44-.85-.36-1.33a5.65 5.65 0 0 1 5.38-4.73 8.9 8.9 0 0 1 6.85-3.26c1.7 0 3.31.48 4.71 1.37v-10.87a12.48 12.48 0 0 1-14.64-12.4c0-1.63.3-3.2.9-4.69a12.3 12.3 0 0 1-1.76-6.35 12.23 12.23 0 0 1 14.14-12.1 12.08 12.08 0 0 1 18.09 0 12.23 12.23 0 0 1 14.14 12.11c0 2.25-.61 4.43-1.76 6.34a12.55 12.55 0 0 1-11.59 17.27h-2.16v7.74a10.3 10.3 0 0 1 5.79 2.4h2.86a8.07 8.07 0 0 1 8.02 7.27c.05.46-.1.92-.4 1.27zm-29.07-21.63c.2-.1.44-.12.66-.06a15.85 15.85 0 0 0 8.93 0 .91.91 0 0 1 .66.06c1.47.74 3.06 1.1 4.71 1.1a10.7 10.7 0 0 0 10.64-10.73c0-1.52-.3-3-.92-4.38a.93.93 0 0 1 .07-.9c1.12-1.7 1.71-3.7 1.71-5.75a10.38 10.38 0 0 0-12.46-10.19.92.92 0 0 1-.9-.32 10.26 10.26 0 0 0-15.96 0 .92.92 0 0 1-.9.32 10.31 10.31 0 0 0-12.46 10.2c0 2.05.6 4.04 1.72 5.74.17.27.2.6.07.9a10.73 10.73 0 0 0-.93 4.38 10.7 10.7 0 0 0 10.64 10.74c1.66 0 3.24-.37 4.72-1.1zm-17.63 20.31zm0 0h21.98a4.93 4.93 0 0 0-5.86-3.9.92.92 0 0 1-.84-.25 6.97 6.97 0 0 0-10.58.87.92.92 0 0 1-.8.37h-.2a3.8 3.8 0 0 0-3.7 2.91zm28.6 0v-18c-.41-.14-.82-.3-1.21-.49a17.68 17.68 0 0 1-9.27 0c-.4.18-.8.34-1.2.48v12.14h.24c3.4 0 6.23 2.56 6.68 5.87zm1.83 0h14.81a6.22 6.22 0 0 0-8.48-4.9.91.91 0 0 1-1.01-.21 8.54 8.54 0 0 0-5.32-2.63z"/></defs><g><g transform="translate(-675 -1176)"><use xlink:href="#ew2wa"/></g></g></svg>